<?xml version="1.0" encoding="UTF-8" standalone="no" ?>
<!DOCTYPE svg PUBLIC "-//W3C//DTD SVG 1.1//EN" "http://www.w3.org/Graphics/SVG/1.1/DTD/svg11.dtd">
<svg xmlns="http://www.w3.org/2000/svg" xmlns:xlink="http://www.w3.org/1999/xlink" version="1.1" width="256" height="256" viewBox="0 0 256 256" xml:space="preserve">
<desc>Created with Fabric.js 4.6.0</desc>
<defs>
</defs>
<g transform="matrix(1.17 0 0 1.17 128.11 128.11)" id="sqz7AYJ6n5iD40iWturrU"  >
<path style="stroke: rgb(170,221,28); stroke-width: 0; stroke-dasharray: none; stroke-linecap: butt; stroke-dashoffset: 0; stroke-linejoin: miter; stroke-miterlimit: 4; fill: rgb(0,0,0); fill-rule: nonzero; opacity: 1;" vector-effect="non-scaling-stroke"  transform=" translate(0, 0)" d="M 0 -109.49054 C 60.43878 -109.49054 109.49054 -60.438779999999994 109.49054 0 C 109.49054 60.43878 60.438779999999994 109.49054 0 109.49054 C -60.43878 109.49054 -109.49054 60.438779999999994 -109.49054 0 C -109.49054 -60.43878 -60.438779999999994 -109.49054 0 -109.49054 z" stroke-linecap="round" />
</g>
<g transform="matrix(1 0 0 1 76.63 40.38)" id="90xmS1n8O5tD2sAAktkp1"  >
<path style="stroke: none; stroke-width: 1; stroke-dasharray: none; stroke-linecap: butt; stroke-dashoffset: 0; stroke-linejoin: miter; stroke-miterlimit: 4; fill: rgb(89,185,227); fill-rule: nonzero; opacity: 1;" vector-effect="non-scaling-stroke"  transform=" translate(-12.5, -25)" d="M 25 0 L 25 50 L 14.345 50 L 14.345 21.06671 L 14.448 16.312640000000002 L 14.62013 11.114990000000002 C 12.850629999999999 12.870850000000003 11.621129999999999 14.022200000000002 10.93163 14.568930000000002 L 10.93163 14.568930000000002 L 5.1377500000000005 19.18588 L -0.000009999999999621423 12.825090000000001 L 16.241500000000002 1.7763568394002505e-15 z" stroke-linecap="round" />
</g>
<g transform="matrix(1 0 0 1 145.68 222.11)" id="VU4RJXD4ngLSFjwG5y2Hs"  >
<path style="stroke: none; stroke-width: 1; stroke-dasharray: none; stroke-linecap: butt; stroke-dashoffset: 0; stroke-linejoin: miter; stroke-miterlimit: 4; fill: rgb(255,63,63); fill-rule: nonzero; opacity: 1;" vector-effect="non-scaling-stroke"  transform=" translate(-15, -25)" d="M 29.99981 25 L 29.99981 25 C 29.99981 35 28.77161 40 26.31511 45 C 23.85951 50 20.07801 50 14.97051 50 L 14.97051 50 C 10.019210000000001 50 6.286010000000001 50 3.77111 45 C 1.2570100000000002 40 0.000010000000000065512 35 0.000010000000000065512 25 L 0.000010000000000065512 25 C 0.000010000000000065512 15 1.2228100000000002 10 3.66841 5 C 6.11491 0 9.88231 0 14.970609999999999 0 L 14.970609999999999 0 C 19.92121 0 23.663809999999998 0 26.198809999999998 5 C 28.732909999999997 10 29.99991 15 29.99991 25 z M 9.0112 25 L 9.0112 25 C 9.0112 30 9.4663 35 10.3763 40 C 11.2863 45 12.8177 45 14.970300000000002 45 L 14.970300000000002 45 C 17.0836 45 18.609900000000003 45 19.549200000000003 40 C 20.488500000000002 35 20.9581 35 20.9581 25 L 20.9581 25 C 20.9581 20 20.483400000000003 15 19.534000000000002 10 C 18.585600000000003 5 17.064100000000003 5 14.970100000000002 5 L 14.970100000000002 5 C 12.836800000000002 5 11.310000000000002 5 10.389900000000003 10 C 9.470600000000003 15 9.011000000000003 15 9.011000000000003 25 z" stroke-linecap="round" />
</g>
<g transform="matrix(1 0 0 1 182.2 202.81)" id="a-0d6n5PyFVKKBLTYoyWz"  >
<path style="stroke: none; stroke-width: 1; stroke-dasharray: none; stroke-linecap: butt; stroke-dashoffset: 0; stroke-linejoin: miter; stroke-miterlimit: 4; fill: rgb(255,63,63); fill-rule: nonzero; opacity: 1;" vector-effect="non-scaling-stroke"  transform=" translate(-15, -25)" d="M 29.99981 25 L 29.99981 25 C 29.99981 35 28.77161 40 26.31511 45 C 23.85951 50 20.07801 50 14.97051 50 L 14.97051 50 C 10.019210000000001 50 6.286010000000001 50 3.77111 45 C 1.2570100000000002 40 0.000010000000000065512 35 0.000010000000000065512 25 L 0.000010000000000065512 25 C 0.000010000000000065512 15 1.2228100000000002 10 3.66841 5 C 6.11491 0 9.88231 0 14.970609999999999 0 L 14.970609999999999 0 C 19.92121 0 23.663809999999998 0 26.198809999999998 5 C 28.732909999999997 10 29.99991 15 29.99991 25 z M 9.0112 25 L 9.0112 25 C 9.0112 30 9.4663 35 10.3763 40 C 11.2863 45 12.8177 45 14.970300000000002 45 L 14.970300000000002 45 C 17.0836 45 18.609900000000003 45 19.549200000000003 40 C 20.488500000000002 35 20.9581 35 20.9581 25 L 20.9581 25 C 20.9581 20 20.483400000000003 15 19.534000000000002 10 C 18.585600000000003 5 17.064100000000003 5 14.970100000000002 5 L 14.970100000000002 5 C 12.836800000000002 5 11.310000000000002 5 10.389900000000003 10 C 9.470600000000003 15 9.011000000000003 15 9.011000000000003 25 z" stroke-linecap="round" />
</g>
<g transform="matrix(1 0 0 1 214.44 171.11)" id="dTdAqo2NAcT97HN7Nqeo2"  >
<path style="stroke: none; stroke-width: 1; stroke-dasharray: none; stroke-linecap: butt; stroke-dashoffset: 0; stroke-linejoin: miter; stroke-miterlimit: 4; fill: rgb(255,63,63); fill-rule: nonzero; opacity: 1;" vector-effect="non-scaling-stroke"  transform=" translate(-15, -25)" d="M 29.99981 25 L 29.99981 25 C 29.99981 35 28.77161 40 26.31511 45 C 23.85951 50 20.07801 50 14.97051 50 L 14.97051 50 C 10.019210000000001 50 6.286010000000001 50 3.77111 45 C 1.2570100000000002 40 0.000010000000000065512 35 0.000010000000000065512 25 L 0.000010000000000065512 25 C 0.000010000000000065512 15 1.2228100000000002 10 3.66841 5 C 6.11491 0 9.88231 0 14.970609999999999 0 L 14.970609999999999 0 C 19.92121 0 23.663809999999998 0 26.198809999999998 5 C 28.732909999999997 10 29.99991 15 29.99991 25 z M 9.0112 25 L 9.0112 25 C 9.0112 30 9.4663 35 10.3763 40 C 11.2863 45 12.8177 45 14.970300000000002 45 L 14.970300000000002 45 C 17.0836 45 18.609900000000003 45 19.549200000000003 40 C 20.488500000000002 35 20.9581 35 20.9581 25 L 20.9581 25 C 20.9581 20 20.483400000000003 15 19.534000000000002 10 C 18.585600000000003 5 17.064100000000003 5 14.970100000000002 5 L 14.970100000000002 5 C 12.836800000000002 5 11.310000000000002 5 10.389900000000003 10 C 9.470600000000003 15 9.011000000000003 15 9.011000000000003 25 z" stroke-linecap="round" />
</g>
<g transform="matrix(1 0 0 1 223.84 111.43)" id="DXkEUaXSMj8ou4biivw2i"  >
<path style="stroke: none; stroke-width: 1; stroke-dasharray: none; stroke-linecap: butt; stroke-dashoffset: 0; stroke-linejoin: miter; stroke-miterlimit: 4; fill: rgb(255,63,63); fill-rule: nonzero; opacity: 1;" vector-effect="non-scaling-stroke"  transform=" translate(-15, -25)" d="M 29.99981 25 L 29.99981 25 C 29.99981 35 28.77161 40 26.31511 45 C 23.85951 50 20.07801 50 14.97051 50 L 14.97051 50 C 10.019210000000001 50 6.286010000000001 50 3.77111 45 C 1.2570100000000002 40 0.000010000000000065512 35 0.000010000000000065512 25 L 0.000010000000000065512 25 C 0.000010000000000065512 15 1.2228100000000002 10 3.66841 5 C 6.11491 0 9.88231 0 14.970609999999999 0 L 14.970609999999999 0 C 19.92121 0 23.663809999999998 0 26.198809999999998 5 C 28.732909999999997 10 29.99991 15 29.99991 25 z M 9.0112 25 L 9.0112 25 C 9.0112 30 9.4663 35 10.3763 40 C 11.2863 45 12.8177 45 14.970300000000002 45 L 14.970300000000002 45 C 17.0836 45 18.609900000000003 45 19.549200000000003 40 C 20.488500000000002 35 20.9581 35 20.9581 25 L 20.9581 25 C 20.9581 20 20.483400000000003 15 19.534000000000002 10 C 18.585600000000003 5 17.064100000000003 5 14.970100000000002 5 L 14.970100000000002 5 C 12.836800000000002 5 11.310000000000002 5 10.389900000000003 10 C 9.470600000000003 15 9.011000000000003 15 9.011000000000003 25 z" stroke-linecap="round" />
</g>
<g transform="matrix(1 0 0 1 192.84 60.43)" id="RiuYuz6k-zKathFuLcf7H"  >
<path style="stroke: none; stroke-width: 1; stroke-dasharray: none; stroke-linecap: butt; stroke-dashoffset: 0; stroke-linejoin: miter; stroke-miterlimit: 4; fill: rgb(255,63,63); fill-rule: nonzero; opacity: 1;" vector-effect="non-scaling-stroke"  transform=" translate(-15, -25)" d="M 29.99981 25 L 29.99981 25 C 29.99981 35 28.77161 40 26.31511 45 C 23.85951 50 20.07801 50 14.97051 50 L 14.97051 50 C 10.019210000000001 50 6.286010000000001 50 3.77111 45 C 1.2570100000000002 40 0.000010000000000065512 35 0.000010000000000065512 25 L 0.000010000000000065512 25 C 0.000010000000000065512 15 1.2228100000000002 10 3.66841 5 C 6.11491 0 9.88231 0 14.970609999999999 0 L 14.970609999999999 0 C 19.92121 0 23.663809999999998 0 26.198809999999998 5 C 28.732909999999997 10 29.99991 15 29.99991 25 z M 9.0112 25 L 9.0112 25 C 9.0112 30 9.4663 35 10.3763 40 C 11.2863 45 12.8177 45 14.970300000000002 45 L 14.970300000000002 45 C 17.0836 45 18.609900000000003 45 19.549200000000003 40 C 20.488500000000002 35 20.9581 35 20.9581 25 L 20.9581 25 C 20.9581 20 20.483400000000003 15 19.534000000000002 10 C 18.585600000000003 5 17.064100000000003 5 14.970100000000002 5 L 14.970100000000002 5 C 12.836800000000002 5 11.310000000000002 5 10.389900000000003 10 C 9.470600000000003 15 9.011000000000003 15 9.011000000000003 25 z" stroke-linecap="round" />
</g>
<g transform="matrix(1 0 0 1 156.19 34.93)" id="gQNoSwN96yLYZYAKoQi-O"  >
<path style="stroke: none; stroke-width: 1; stroke-dasharray: none; stroke-linecap: butt; stroke-dashoffset: 0; stroke-linejoin: miter; stroke-miterlimit: 4; fill: rgb(255,63,63); fill-rule: nonzero; opacity: 1;" vector-effect="non-scaling-stroke"  transform=" translate(-15, -25)" d="M 29.99981 25 L 29.99981 25 C 29.99981 35 28.77161 40 26.31511 45 C 23.85951 50 20.07801 50 14.97051 50 L 14.97051 50 C 10.019210000000001 50 6.286010000000001 50 3.77111 45 C 1.2570100000000002 40 0.000010000000000065512 35 0.000010000000000065512 25 L 0.000010000000000065512 25 C 0.000010000000000065512 15 1.2228100000000002 10 3.66841 5 C 6.11491 0 9.88231 0 14.970609999999999 0 L 14.970609999999999 0 C 19.92121 0 23.663809999999998 0 26.198809999999998 5 C 28.732909999999997 10 29.99991 15 29.99991 25 z M 9.0112 25 L 9.0112 25 C 9.0112 30 9.4663 35 10.3763 40 C 11.2863 45 12.8177 45 14.970300000000002 45 L 14.970300000000002 45 C 17.0836 45 18.609900000000003 45 19.549200000000003 40 C 20.488500000000002 35 20.9581 35 20.9581 25 L 20.9581 25 C 20.9581 20 20.483400000000003 15 19.534000000000002 10 C 18.585600000000003 5 17.064100000000003 5 14.970100000000002 5 L 14.970100000000002 5 C 12.836800000000002 5 11.310000000000002 5 10.389900000000003 10 C 9.470600000000003 15 9.011000000000003 15 9.011000000000003 25 z" stroke-linecap="round" />
</g>
<g transform="matrix(1 0 0 1 117.18 43.47)" id="h1aRfcvCw5DHrXjPMi2Pm"  >
<path style="stroke: none; stroke-width: 1; stroke-dasharray: none; stroke-linecap: butt; stroke-dashoffset: 0; stroke-linejoin: miter; stroke-miterlimit: 4; fill: rgb(255,63,63); fill-rule: nonzero; opacity: 1;" vector-effect="non-scaling-stroke"  transform=" translate(-15, -25)" d="M 29.99981 25 L 29.99981 25 C 29.99981 35 28.77161 40 26.31511 45 C 23.85951 50 20.07801 50 14.97051 50 L 14.97051 50 C 10.019210000000001 50 6.286010000000001 50 3.77111 45 C 1.2570100000000002 40 0.000010000000000065512 35 0.000010000000000065512 25 L 0.000010000000000065512 25 C 0.000010000000000065512 15 1.2228100000000002 10 3.66841 5 C 6.11491 0 9.88231 0 14.970609999999999 0 L 14.970609999999999 0 C 19.92121 0 23.663809999999998 0 26.198809999999998 5 C 28.732909999999997 10 29.99991 15 29.99991 25 z M 9.0112 25 L 9.0112 25 C 9.0112 30 9.4663 35 10.3763 40 C 11.2863 45 12.8177 45 14.970300000000002 45 L 14.970300000000002 45 C 17.0836 45 18.609900000000003 45 19.549200000000003 40 C 20.488500000000002 35 20.9581 35 20.9581 25 L 20.9581 25 C 20.9581 20 20.483400000000003 15 19.534000000000002 10 C 18.585600000000003 5 17.064100000000003 5 14.970100000000002 5 L 14.970100000000002 5 C 12.836800000000002 5 11.310000000000002 5 10.389900000000003 10 C 9.470600000000003 15 9.011000000000003 15 9.011000000000003 25 z" stroke-linecap="round" />
</g>
<g transform="matrix(1 0 0 1 114.68 128.11)" id="kdX5_N4CYFSOEnhOCHEnT"  >
<path style="stroke: none; stroke-width: 1; stroke-dasharray: none; stroke-linecap: butt; stroke-dashoffset: 0; stroke-linejoin: miter; stroke-miterlimit: 4; fill: rgb(255,63,63); fill-rule: nonzero; opacity: 1;" vector-effect="non-scaling-stroke"  transform=" translate(-15, -25)" d="M 29.99981 25 L 29.99981 25 C 29.99981 35 28.77161 40 26.31511 45 C 23.85951 50 20.07801 50 14.97051 50 L 14.97051 50 C 10.019210000000001 50 6.286010000000001 50 3.77111 45 C 1.2570100000000002 40 0.000010000000000065512 35 0.000010000000000065512 25 L 0.000010000000000065512 25 C 0.000010000000000065512 15 1.2228100000000002 10 3.66841 5 C 6.11491 0 9.88231 0 14.970609999999999 0 L 14.970609999999999 0 C 19.92121 0 23.663809999999998 0 26.198809999999998 5 C 28.732909999999997 10 29.99991 15 29.99991 25 z M 9.0112 25 L 9.0112 25 C 9.0112 30 9.4663 35 10.3763 40 C 11.2863 45 12.8177 45 14.970300000000002 45 L 14.970300000000002 45 C 17.0836 45 18.609900000000003 45 19.549200000000003 40 C 20.488500000000002 35 20.9581 35 20.9581 25 L 20.9581 25 C 20.9581 20 20.483400000000003 15 19.534000000000002 10 C 18.585600000000003 5 17.064100000000003 5 14.970100000000002 5 L 14.970100000000002 5 C 12.836800000000002 5 11.310000000000002 5 10.389900000000003 10 C 9.470600000000003 15 9.011000000000003 15 9.011000000000003 25 z" stroke-linecap="round" />
</g>
<g transform="matrix(1 0 0 1 82.26 99.4)" id="quJY_xqkaZPirdVMgLKvx"  >
<path style="stroke: none; stroke-width: 1; stroke-dasharray: none; stroke-linecap: butt; stroke-dashoffset: 0; stroke-linejoin: miter; stroke-miterlimit: 4; fill: rgb(255,63,63); fill-rule: nonzero; opacity: 1;" vector-effect="non-scaling-stroke"  transform=" translate(-15, -25)" d="M 29.99981 25 L 29.99981 25 C 29.99981 35 28.77161 40 26.31511 45 C 23.85951 50 20.07801 50 14.97051 50 L 14.97051 50 C 10.019210000000001 50 6.286010000000001 50 3.77111 45 C 1.2570100000000002 40 0.000010000000000065512 35 0.000010000000000065512 25 L 0.000010000000000065512 25 C 0.000010000000000065512 15 1.2228100000000002 10 3.66841 5 C 6.11491 0 9.88231 0 14.970609999999999 0 L 14.970609999999999 0 C 19.92121 0 23.663809999999998 0 26.198809999999998 5 C 28.732909999999997 10 29.99991 15 29.99991 25 z M 9.0112 25 L 9.0112 25 C 9.0112 30 9.4663 35 10.3763 40 C 11.2863 45 12.8177 45 14.970300000000002 45 L 14.970300000000002 45 C 17.0836 45 18.609900000000003 45 19.549200000000003 40 C 20.488500000000002 35 20.9581 35 20.9581 25 L 20.9581 25 C 20.9581 20 20.483400000000003 15 19.534000000000002 10 C 18.585600000000003 5 17.064100000000003 5 14.970100000000002 5 L 14.970100000000002 5 C 12.836800000000002 5 11.310000000000002 5 10.389900000000003 10 C 9.470600000000003 15 9.011000000000003 15 9.011000000000003 25 z" stroke-linecap="round" />
</g>
<g transform="matrix(1 0 0 1 42.57 68.97)" id="rzM3AoV_oXWu57VaAp8lm"  >
<path style="stroke: none; stroke-width: 1; stroke-dasharray: none; stroke-linecap: butt; stroke-dashoffset: 0; stroke-linejoin: miter; stroke-miterlimit: 4; fill: rgb(89,185,227); fill-rule: nonzero; opacity: 1;" vector-effect="non-scaling-stroke"  transform=" translate(-12.5, -25)" d="M 25 0 L 25 50 L 14.345 50 L 14.345 21.06671 L 14.448 16.312640000000002 L 14.62013 11.114990000000002 C 12.850629999999999 12.870850000000003 11.621129999999999 14.022200000000002 10.93163 14.568930000000002 L 10.93163 14.568930000000002 L 5.1377500000000005 19.18588 L -0.000009999999999621423 12.825090000000001 L 16.241500000000002 1.7763568394002505e-15 z" stroke-linecap="round" />
</g>
<g transform="matrix(1 0 0 1 29.57 128)" id="FO9EAQndiPfWJ8X_UWBug"  >
<path style="stroke: none; stroke-width: 1; stroke-dasharray: none; stroke-linecap: butt; stroke-dashoffset: 0; stroke-linejoin: miter; stroke-miterlimit: 4; fill: rgb(89,185,227); fill-rule: nonzero; opacity: 1;" vector-effect="non-scaling-stroke"  transform=" translate(-12.5, -25)" d="M 25 0 L 25 50 L 14.345 50 L 14.345 21.06671 L 14.448 16.312640000000002 L 14.62013 11.114990000000002 C 12.850629999999999 12.870850000000003 11.621129999999999 14.022200000000002 10.93163 14.568930000000002 L 10.93163 14.568930000000002 L 5.1377500000000005 19.18588 L -0.000009999999999621423 12.825090000000001 L 16.241500000000002 1.7763568394002505e-15 z" stroke-linecap="round" />
</g>
<g transform="matrix(1 0 0 1 59.73 171.11)" id="6a5mqpvlJ0GQJk__UmAJA"  >
<path style="stroke: none; stroke-width: 1; stroke-dasharray: none; stroke-linecap: butt; stroke-dashoffset: 0; stroke-linejoin: miter; stroke-miterlimit: 4; fill: rgb(89,185,227); fill-rule: nonzero; opacity: 1;" vector-effect="non-scaling-stroke"  transform=" translate(-12.5, -25)" d="M 25 0 L 25 50 L 14.345 50 L 14.345 21.06671 L 14.448 16.312640000000002 L 14.62013 11.114990000000002 C 12.850629999999999 12.870850000000003 11.621129999999999 14.022200000000002 10.93163 14.568930000000002 L 10.93163 14.568930000000002 L 5.1377500000000005 19.18588 L -0.000009999999999621423 12.825090000000001 L 16.241500000000002 1.7763568394002505e-15 z" stroke-linecap="round" />
</g>
<g transform="matrix(1 0 0 1 99.18 199.49)" id="VOBTU_mZve0GdNEBYyfmu"  >
<path style="stroke: none; stroke-width: 1; stroke-dasharray: none; stroke-linecap: butt; stroke-dashoffset: 0; stroke-linejoin: miter; stroke-miterlimit: 4; fill: rgb(89,185,227); fill-rule: nonzero; opacity: 1;" vector-effect="non-scaling-stroke"  transform=" translate(-12.5, -25)" d="M 25 0 L 25 50 L 14.345 50 L 14.345 21.06671 L 14.448 16.312640000000002 L 14.62013 11.114990000000002 C 12.850629999999999 12.870850000000003 11.621129999999999 14.022200000000002 10.93163 14.568930000000002 L 10.93163 14.568930000000002 L 5.1377500000000005 19.18588 L -0.000009999999999621423 12.825090000000001 L 16.241500000000002 1.7763568394002505e-15 z" stroke-linecap="round" />
</g>
<g transform="matrix(1 0 0 1 143.18 165.92)" id="rgfTaq6XT1bqawHu8WuIg"  >
<path style="stroke: none; stroke-width: 1; stroke-dasharray: none; stroke-linecap: butt; stroke-dashoffset: 0; stroke-linejoin: miter; stroke-miterlimit: 4; fill: rgb(89,185,227); fill-rule: nonzero; opacity: 1;" vector-effect="non-scaling-stroke"  transform=" translate(-12.5, -25)" d="M 25 0 L 25 50 L 14.345 50 L 14.345 21.06671 L 14.448 16.312640000000002 L 14.62013 11.114990000000002 C 12.850629999999999 12.870850000000003 11.621129999999999 14.022200000000002 10.93163 14.568930000000002 L 10.93163 14.568930000000002 L 5.1377500000000005 19.18588 L -0.000009999999999621423 12.825090000000001 L 16.241500000000002 1.7763568394002505e-15 z" stroke-linecap="round" />
</g>
<g transform="matrix(1 0 0 1 169.2 135.51)" id="SeqfareH598hAMIYsY7Pb"  >
<path style="stroke: none; stroke-width: 1; stroke-dasharray: none; stroke-linecap: butt; stroke-dashoffset: 0; stroke-linejoin: miter; stroke-miterlimit: 4; fill: rgb(89,185,227); fill-rule: nonzero; opacity: 1;" vector-effect="non-scaling-stroke"  transform=" translate(-12.5, -25)" d="M 25 0 L 25 50 L 14.345 50 L 14.345 21.06671 L 14.448 16.312640000000002 L 14.62013 11.114990000000002 C 12.850629999999999 12.870850000000003 11.621129999999999 14.022200000000002 10.93163 14.568930000000002 L 10.93163 14.568930000000002 L 5.1377500000000005 19.18588 L -0.000009999999999621423 12.825090000000001 L 16.241500000000002 1.7763568394002505e-15 z" stroke-linecap="round" />
</g>
<g transform="matrix(1 0 0 1 145.68 90.2)" id="xaky-M-lCJ9WuWU_aXoZW"  >
<path style="stroke: none; stroke-width: 1; stroke-dasharray: none; stroke-linecap: butt; stroke-dashoffset: 0; stroke-linejoin: miter; stroke-miterlimit: 4; fill: rgb(89,185,227); fill-rule: nonzero; opacity: 1;" vector-effect="non-scaling-stroke"  transform=" translate(-12.5, -25)" d="M 25 0 L 25 50 L 14.345 50 L 14.345 21.06671 L 14.448 16.312640000000002 L 14.62013 11.114990000000002 C 12.850629999999999 12.870850000000003 11.621129999999999 14.022200000000002 10.93163 14.568930000000002 L 10.93163 14.568930000000002 L 5.1377500000000005 19.18588 L -0.000009999999999621423 12.825090000000001 L 16.241500000000002 1.7763568394002505e-15 z" stroke-linecap="round" />
</g>
</svg>